HIERARCHY
ROOT Hips
{
	OFFSET 0.000000 0.000000 0.000000
	CHANNELS 6 Xposition Yposition Zposition Zrotation Yrotation Xrotation 
	JOINT LHipJoint
	{
		OFFSET 0.000000 0.000000 0.000000
		CHANNELS 3 Zrotation Yrotation Xrotation
		JOINT LeftUpLeg
		{
			OFFSET 8.178360 -10.767780 5.035740
			CHANNELS 3 Zrotation Yrotation Xrotation
			JOINT LeftLeg
			{
				OFFSET 14.688660 -40.356780 0.000000
				CHANNELS 3 Zrotation Yrotation Xrotation
				JOINT LeftFoot
				{
					OFFSET 15.373200 -42.237540 0.000000
					CHANNELS 3 Zrotation Yrotation Xrotation
					JOINT LeftToeBase
					{
						OFFSET 0.945840 -2.598660 13.935300
						CHANNELS 3 Zrotation Yrotation Xrotation
						End Site
						{
							OFFSET 0.000000 0.000000 0.000000
						}
					}
				}
			}
		}
	}
	JOINT RHipJoint
	{
		OFFSET 0.000000 0.000000 0.000000
		CHANNELS 3 Zrotation Yrotation Xrotation
		JOINT RightUpLeg
		{
			OFFSET -7.833120 -10.767780 5.035740
			CHANNELS 3 Zrotation Yrotation Xrotation
			JOINT RightLeg
			{
				OFFSET -15.255180 -41.913300 0.000000
				CHANNELS 3 Zrotation Yrotation Xrotation
				JOINT RightFoot
				{
					OFFSET -15.409560 -42.337380 0.000000
					CHANNELS 3 Zrotation Yrotation Xrotation
					JOINT RightToeBase
					{
						OFFSET -0.988380 -2.715540 14.178900
						CHANNELS 3 Zrotation Yrotation Xrotation
						End Site
						{
							OFFSET 0.000000 0.000000 0.000000
						}
					}
				}
			}
		}
	}
	JOINT LowerBack
	{
		OFFSET 0.000000 0.000000 0.000000
		CHANNELS 3 Zrotation Yrotation Xrotation
		JOINT Spine
		{
			OFFSET 0.169620 12.213540 -1.160280
			CHANNELS 3 Zrotation Yrotation Xrotation
			JOINT Spine1
			{
				OFFSET 0.340320 12.293100 -0.256500
				CHANNELS 3 Zrotation Yrotation Xrotation
				JOINT Neck
				{
					OFFSET 0.000000 0.000000 0.000000
					CHANNELS 3 Zrotation Yrotation Xrotation
					JOINT Neck1
					{
						OFFSET -0.325020 10.477440 1.032120
						CHANNELS 3 Zrotation Yrotation Xrotation
						JOINT Head
						{
							OFFSET 0.624420 10.568160 -0.743820
							CHANNELS 3 Zrotation Yrotation Xrotation
							End Site
							{
								OFFSET 0.000000 0.000000 0.000000
							}
						}
					}
				}
				JOINT LeftShoulder
				{
					OFFSET 0.000000 0.000000 0.000000
					CHANNELS 3 Zrotation Yrotation Xrotation
					JOINT LeftArm
					{
						OFFSET 20.174460 7.205340 -1.867260
						CHANNELS 3 Zrotation Yrotation Xrotation
						JOINT LeftForeArm
						{
							OFFSET 29.898000 -0.000000 -0.000000
							CHANNELS 3 Zrotation Yrotation Xrotation
							JOINT LeftHand
							{
								OFFSET 20.901360 -0.000000 -0.000000
								CHANNELS 3 Zrotation Yrotation Xrotation
								JOINT LeftFingerBase
								{
									OFFSET 0.000000 0.000000 0.000000
									CHANNELS 3 Zrotation Yrotation Xrotation
									JOINT LeftHandIndex1
									{
										OFFSET 4.291560 -0.000000 -0.000000
										CHANNELS 3 Zrotation Yrotation Xrotation
										End Site
										{
											OFFSET 0.000000 0.000000 0.000000
										}
									}
								}
								JOINT LThumb
								{
									OFFSET 0.000000 0.000000 0.000000
									CHANNELS 3 Zrotation Yrotation Xrotation
									End Site
									{
										OFFSET 0.000000 0.000000 0.000000
									}
								}
							}
						}
					}
				}
				JOINT RightShoulder
				{
					OFFSET 0.000000 0.000000 0.000000
					CHANNELS 3 Zrotation Yrotation Xrotation
					JOINT RightArm
					{
						OFFSET -18.819600 8.244300 -2.427900
						CHANNELS 3 Zrotation Yrotation Xrotation
						JOINT RightForeArm
						{
							OFFSET -31.451400 -0.000000 -0.000000
							CHANNELS 3 Zrotation Yrotation Xrotation
							JOINT RightHand
							{
								OFFSET -20.665020 -0.000000 -0.000000
								CHANNELS 3 Zrotation Yrotation Xrotation
								JOINT RightFingerBase
								{
									OFFSET 0.000000 0.000000 0.000000
									CHANNELS 3 Zrotation Yrotation Xrotation
									JOINT RightHandIndex1
									{
										OFFSET -3.735180 -0.000000 -0.000000
										CHANNELS 3 Zrotation Yrotation Xrotation
										End Site
										{
											OFFSET 0.000000 0.000000 0.000000
										}
									}
								}
								JOINT RThumb
								{
									OFFSET 0.000000 0.000000 0.000000
									CHANNELS 3 Zrotation Yrotation Xrotation
									End Site
									{
										OFFSET 0.000000 0.000000 0.000000
									}
								}
							}
						}
					}
				}
			}
		}
	}
}
MOTION
Frames:	4
Frame Time:	0.0333333
90.176592 107.337888 -60.796200 5.907393 -80.902020 -2.783048 -3.835845 1.494306 2.735731 -16.354051 -7.408812 -7.219864 -0.209202 7.142181 21.402459 0.216571 0.059193 -6.360585 0.454100 -4.323100 -11.987300 0.509709 -1.312155 1.063327 22.835250 4.295614 -7.929164 -2.044298 -9.489298 28.812761 0.213022 -3.896437 -10.558976 -0.086000 -1.891100 5.204700 0.669509 1.416770 1.513669 1.371355 1.912276 -0.586798 -1.203034 0.937673 -3.843875 -6.030293 2.717095 -21.803375 4.292883 4.538941 18.664940 3.832600 1.516100 13.709400 -6.448949 -1.185321 -1.666220 -85.004924 2.574388 23.781752 13.281034 -18.619738 -2.552113 -1.581280 -2.161733 9.826691 19.387887 22.044472 8.823700 -7.125000 0.000000 0.000000 -9.542100 55.583900 -2.495000 5.550858 0.955633 -1.454422 84.410534 -3.984513 15.237179 -14.648888 21.722859 -2.973247 0.404093 -0.221673 8.517283 -16.354265 8.774032 -2.678200 7.125000 0.000000 0.000000 7.274300 -20.702600 4.267000 
90.209640 107.333082 -60.837060 6.600630 -80.985611 -3.454714 -3.837612 1.493593 2.734015 -16.440641 -7.343184 -7.271735 -0.213192 7.133732 21.375100 0.218491 0.033607 -6.322129 0.443000 -4.270400 -11.838800 0.512404 -1.303309 1.058973 22.729516 4.434935 -7.952963 -2.051658 -9.502817 28.856656 0.210949 -3.896738 -10.595631 -0.101900 -2.059000 5.668600 0.509051 1.377948 1.548633 1.410105 1.846942 -0.576337 -1.011038 0.909882 -3.852707 -6.226722 2.636642 -21.651044 4.333690 4.496858 18.562615 3.872900 1.486300 13.625300 -6.437578 -1.176214 -1.670596 -84.918358 2.632085 24.920682 13.379725 -18.782478 -2.604388 -1.585887 -2.199227 8.272549 20.050611 21.982568 9.137800 -7.125000 0.000000 0.000000 -8.755500 55.667700 -2.304800 5.545134 0.965132 -1.448021 84.379363 -3.934518 15.483698 -14.722235 21.819516 -3.001695 0.412051 -0.215413 8.514346 -16.563732 8.595172 -2.658500 7.125000 0.000000 0.000000 7.121800 -20.883900 4.146800 
90.263730 107.346900 -60.896556 6.790340 -81.002141 -3.566656 -3.837653 1.483148 2.727208 -16.416449 -7.272439 -7.421735 -0.214148 7.128472 21.357796 0.224657 -0.051912 -6.159075 0.419100 -4.155200 -11.513600 0.514611 -1.297118 1.059128 22.706706 4.376723 -8.138215 -2.059512 -9.513064 28.890394 0.180286 -3.743897 -10.529812 -0.109600 -2.134600 5.877700 0.442895 1.339551 1.581172 1.401752 1.791002 -0.592977 -0.994324 0.884723 -3.899239 -6.055788 2.725893 -21.496366 4.215228 4.550476 18.566783 3.792100 1.510000 13.592700 -6.435987 -1.201177 -1.659831 -84.881785 2.447605 24.629140 13.335804 -18.710230 -2.582512 -1.638065 -2.132263 8.614435 20.590043 21.470314 9.207900 -7.125000 0.000000 0.000000 -7.909800 55.205000 -1.991000 5.545507 0.963262 -1.452459 84.456752 -3.980884 15.823929 -14.876041 22.028720 -3.064399 0.418707 -0.200848 8.108058 -16.659587 8.348848 -2.596400 7.125000 0.000000 0.000000 7.054400 -21.146500 4.064800 
90.273342 107.363130 -60.922398 7.561052 -81.149038 -4.240627 -3.843286 1.480752 2.721764 -16.528341 -7.232144 -7.498033 -0.228572 7.107752 21.288922 0.199388 0.117438 -6.210796 0.476700 -4.427900 -12.283800 0.518614 -1.284525 1.054095 22.574392 4.457597 -8.265882 -2.070726 -9.530070 28.945681 0.157208 -3.628306 -10.480057 -0.120400 -2.236900 6.160900 0.335198 1.307763 1.482439 1.403785 1.739720 -0.584684 -0.919114 0.861977 -3.816545 -6.091292 2.740402 -21.748186 4.341565 4.572002 18.962222 3.872800 1.511900 13.821300 -6.426881 -1.205997 -1.662118 -84.930668 2.288001 24.627343 13.466674 -18.895106 -2.639196 -1.568006 -2.171197 8.851676 19.708928 21.833137 8.907100 -7.125000 0.000000 0.000000 -9.082900 55.423700 -2.338100 5.540987 0.972319 -1.453103 84.478508 -3.956224 16.109910 -14.982235 22.182874 -3.110779 0.416124 -0.206029 8.000375 -16.628491 8.598738 -2.668600 7.125000 0.000000 0.000000 7.074300 -20.883200 4.118900 
